<?xml version="1.0" encoding="utf-8"?>
<!-- Generator: Adobe Illustrator 22.1.0, SVG Export Plug-In . SVG Version: 6.00 Build 0)  -->
<svg version="1.1" id="Calque_1" xmlns="http://www.w3.org/2000/svg" xmlns:xlink="http://www.w3.org/1999/xlink" x="0px" y="0px"
	 viewBox="0 0 439.4 170.1" style="enable-background:new 0 0 439.4 170.1;" xml:space="preserve">
<style type="text/css">
	.st0{fill:#706F6F;}
	.st1{fill:none;stroke:#706F6F;}
	.st2{fill:#FFD500;}
</style>
<g>
	<path class="st0" d="M84.6,56.1h1.8v-3.9c0-0.5-0.4-0.9-0.9-0.9c-0.5,0-0.9,0.4-0.9,0.9V56.1z"/>
	<path class="st0" d="M80.8,56.1h1.8v-3.9c0-0.5-0.4-0.9-0.9-0.9c-0.5,0-0.9,0.4-0.9,0.9V56.1z"/>
	<path class="st0" d="M88.3,56.1h1.8v-3.9c0-0.5-0.4-0.9-0.9-0.9c-0.5,0-0.9,0.4-0.9,0.9V56.1z"/>
	<path class="st0" d="M85.9,41.7c1.2,0.2,1.6,1.3,1.6,2v1.5h1.1v0.9c2.8,1.3,4.9,4.3,4.9,7.4c0,0,0,0,0,0.1v2.6h6.6v-2.7
		c-0.1-8.6-6.3-13.9-14.4-14L85.9,41.7z"/>
	<path class="st0" d="M84.7,43.7v1.6h1.6v-1.6c0-0.4-0.4-0.8-0.8-0.8C85,42.9,84.7,43.2,84.7,43.7"/>
	<path class="st0" d="M86.7,60.4c-6.8-1.7-9.3-3.2-9.3-7.5c0-3.1,2.1-5.7,5-6.9v-0.7h1.1v-1.5c0-0.7,0.5-1.8,1.7-2l0.2-2.3
		c-8.2,0.1-15.1,5.7-14.8,13.4c0.4,8.6,9.7,10.9,14.8,12c4,0.8,13.5,3.1,15.9,9.8C101.2,74.7,102.1,63.5,86.7,60.4"/>
	<path class="st0" d="M84.4,72.2c6.9,2.1,8.6,4.6,8.6,8.2c0,5.5-4.3,7.8-9.6,7.8c-5.1,0-9.5-2.4-12.5-5.5c0,0-1.1,2.3-1.1,2.3
		c2.2,4.1,8.2,7.8,15,7.8h0h0c8.7,0.1,16-4,16-12.1c0-8.8-9.5-12.2-14.8-13.4c-4.2-0.9-14.7-3.7-16.6-9.6
		C69.5,57.7,67.4,67.9,84.4,72.2"/>
	<path class="st0" d="M57.8,107.4h-2.7l-0.6,1.9H53l2.7-7.3h1.5l2.7,7.3h-1.4L57.8,107.4z M56.4,103.2c0,0-0.2,0.7-0.3,1.1l-0.7,2h2
		l-0.7-2C56.6,103.9,56.4,103.2,56.4,103.2L56.4,103.2z"/>
	<polygon class="st0" points="62.9,101.9 64.3,101.9 64.3,108.1 67.7,108.1 67.7,109.3 62.9,109.3 	"/>
	<polygon class="st0" points="70.9,101.9 72.3,101.9 72.3,108.1 75.6,108.1 75.6,109.3 70.9,109.3 	"/>
	<rect x="78.8" y="101.9" class="st0" width="1.4" height="7.3"/>
	<path class="st0" d="M88,107.4h-2.7l-0.6,1.9h-1.4l2.7-7.3h1.5l2.7,7.3h-1.4L88,107.4z M86.7,103.2c0,0-0.2,0.7-0.3,1.1l-0.7,2h2
		l-0.7-2C86.9,103.9,86.7,103.2,86.7,103.2L86.7,103.2z"/>
	<path class="st0" d="M93.2,101.9h1.4l2.9,4.2c0.3,0.4,0.6,1.1,0.6,1.1h0c0,0-0.1-0.7-0.1-1.1v-4.2h1.4v7.3h-1.4l-2.9-4.2
		c-0.3-0.4-0.6-1.1-0.6-1.1h0c0,0,0.1,0.7,0.1,1.1v4.2h-1.4V101.9z"/>
	<path class="st0" d="M106.9,101.8c1.9,0,2.8,1,2.8,1l-0.7,1c0,0-0.9-0.8-2.1-0.8c-1.6,0-2.6,1.2-2.6,2.5c0,1.4,1,2.6,2.6,2.6
		c1.3,0,2.2-0.9,2.2-0.9l0.7,1c0,0-1.1,1.2-3,1.2c-2.3,0-4-1.7-4-3.8C103,103.4,104.7,101.8,106.9,101.8"/>
	<polygon class="st0" points="113.3,101.9 117.9,101.9 117.9,103.1 114.7,103.1 114.7,105 117.3,105 117.3,106.2 114.7,106.2 
		114.7,108.1 118.1,108.1 118.1,109.3 113.3,109.3 	"/>
	<path class="st0" d="M53.9,118c0,0,0.8,0.8,1.9,0.8c0.6,0,1.1-0.3,1.1-0.9c0-1.3-3.6-1.1-3.6-3.3c0-1.2,1.1-2.1,2.6-2.1
		c1.5,0,2.3,0.8,2.3,0.8l-0.6,1.1c0,0-0.7-0.6-1.7-0.6c-0.6,0-1.1,0.4-1.1,0.9c0,1.3,3.6,1,3.6,3.3c0,1.2-0.9,2.1-2.5,2.1
		c-1.7,0-2.6-1-2.6-1L53.9,118z"/>
	<path class="st0" d="M64.2,118.8c1.4,0,2.5-1.1,2.5-2.6c0-1.4-1.1-2.5-2.5-2.5c-1.4,0-2.5,1.1-2.5,2.5
		C61.6,117.7,62.8,118.8,64.2,118.8 M64.2,112.4c2.2,0,3.9,1.6,3.9,3.7c0,2.2-1.7,3.8-3.9,3.8c-2.2,0-3.9-1.7-3.9-3.8
		C60.2,114.1,61.9,112.4,64.2,112.4"/>
	<path class="st0" d="M73,116c0.7,0,1.2-0.4,1.2-1.2c0-0.7-0.3-1.1-1.4-1.1h-1.1v2.3H73z M70.3,112.6h2.5c0.8,0,1.2,0.1,1.5,0.2
		c0.8,0.3,1.2,1,1.2,2c0,0.9-0.5,1.7-1.3,2v0c0,0,0.1,0.1,0.3,0.4l1.6,2.7h-1.5l-1.5-2.7h-1.3v2.7h-1.4V112.6z"/>
	<path class="st0" d="M80.9,118.7c0.7,0,1.1-0.4,1.1-1.1c0-0.6-0.4-1.1-1.1-1.1h-1.5v2.1H80.9z M80.8,115.6c0.6,0,0.9-0.4,0.9-0.9
		c0-0.5-0.3-0.9-1-0.9h-1.3v1.8H80.8z M78.1,112.6h2.7c1.4,0,2.4,0.7,2.4,1.9c0,0.7-0.3,1.3-0.9,1.6v0c0.8,0.2,1.2,1,1.2,1.7
		c0,1.5-1.2,2.1-2.6,2.1h-2.8V112.6z"/>
	<path class="st0" d="M89.2,118.8c1.4,0,2.5-1.1,2.5-2.6c0-1.4-1.1-2.5-2.5-2.5c-1.4,0-2.5,1.1-2.5,2.5
		C86.7,117.7,87.8,118.8,89.2,118.8 M89.2,112.4c2.2,0,3.9,1.6,3.9,3.7c0,2.2-1.7,3.8-3.9,3.8c-2.2,0-3.9-1.7-3.9-3.8
		C85.3,114.1,87,112.4,89.2,112.4"/>
	<path class="st0" d="M95.5,112.6h1.4l2.9,4.2c0.3,0.4,0.6,1.1,0.6,1.1h0c0,0-0.1-0.7-0.1-1.1v-4.2h1.4v7.3h-1.4l-2.9-4.2
		c-0.3-0.4-0.6-1.1-0.6-1.1h0c0,0,0.1,0.7,0.1,1.1v4.2h-1.4V112.6z"/>
	<path class="st0" d="M104.5,112.6h1.4l2.9,4.2c0.3,0.4,0.6,1.1,0.6,1.1h0c0,0-0.1-0.7-0.1-1.1v-4.2h1.4v7.3h-1.4l-2.9-4.2
		c-0.3-0.4-0.6-1.1-0.6-1.1h0c0,0,0.1,0.7,0.1,1.1v4.2h-1.4V112.6z"/>
	<polygon class="st0" points="113.5,112.6 113.5,119.9 118.2,119.9 118.2,118.7 114.9,118.7 114.9,116.8 117.5,116.8 117.5,115.6 
		114.9,115.6 114.9,113.7 118.1,113.7 118.1,112.6 	"/>
	<path class="st0" d="M53.3,123.1h1.4v4.7c0,1,0.7,1.6,1.7,1.6c1,0,1.7-0.6,1.7-1.6v-4.7h1.4v4.7c0,1.7-1.2,2.8-3.1,2.8
		c-1.9,0-3.1-1.1-3.1-2.8V123.1z"/>
	<path class="st0" d="M61.8,123.2h1.4l2.9,4.2c0.3,0.4,0.6,1.1,0.6,1.1h0c0,0-0.1-0.7-0.1-1.1v-4.2H68v7.3h-1.4l-2.9-4.2
		c-0.3-0.4-0.6-1.1-0.6-1.1h0c0,0,0.1,0.7,0.1,1.1v4.2h-1.4V123.2z"/>
	<rect x="70.5" y="123.2" class="st0" width="1.4" height="7.3"/>
	<path class="st0" d="M73.4,123.2h1.5l1.7,4.8c0.2,0.4,0.3,1.1,0.3,1.1h0c0,0,0.1-0.6,0.3-1.1l1.7-4.8h1.5l-2.8,7.3h-1.4L73.4,123.2
		z"/>
	<polygon class="st0" points="81.8,123.2 86.4,123.2 86.4,124.3 83.2,124.3 83.2,126.2 85.8,126.2 85.8,127.4 83.2,127.4 
		83.2,129.4 86.6,129.4 86.6,130.5 81.8,130.5 	"/>
	<path class="st0" d="M91.2,126.6c0.7,0,1.2-0.4,1.2-1.2c0-0.7-0.3-1.1-1.4-1.1h-1.1v2.3H91.2z M88.5,123.2H91
		c0.8,0,1.2,0.1,1.5,0.2c0.8,0.3,1.2,1,1.2,2c0,0.9-0.5,1.7-1.3,2v0c0,0,0.1,0.1,0.3,0.4l1.6,2.7h-1.5l-1.5-2.7h-1.3v2.7h-1.4V123.2
		z"/>
	<path class="st0" d="M96.3,128.6c0,0,0.8,0.8,1.9,0.8c0.6,0,1.1-0.3,1.1-0.9c0-1.3-3.6-1.1-3.6-3.3c0-1.2,1.1-2.1,2.6-2.1
		c1.5,0,2.3,0.8,2.3,0.8l-0.6,1.1c0,0-0.7-0.6-1.7-0.6c-0.6,0-1.1,0.4-1.1,0.9c0,1.3,3.6,1,3.6,3.3c0,1.2-0.9,2.1-2.5,2.1
		c-1.7,0-2.6-1-2.6-1L96.3,128.6z"/>
	<rect x="102.6" y="123.2" class="st0" width="1.4" height="7.3"/>
	<polygon class="st0" points="108.1,124.3 105.6,124.3 105.6,123.2 112,123.2 112,124.3 109.5,124.3 109.5,130.5 108.1,130.5 	"/>
	<path class="st0" d="M113.5,123.2v7.3h4.7v-1.1h-3.4v-2h2.6v-1.1h-2.6v-1.9h3.2v-1.1H113.5z M116.1,121.3l-0.8,1.4h1.1l1.1-1.4
		H116.1z"/>
</g>
<g>
	<line class="st1" x1="145" y1="39.5" x2="132.3" y2="129.8"/>
</g>
<g>
	<line class="st1" x1="278.6" y1="98.5" x2="422.2" y2="98.5"/>
</g>
<g>
	<path class="st0" d="M304.1,58.2H299v20c0,5-2.7,7.8-7.3,7.8c-4.6,0-7.1-2.8-7.1-7.8v-20h-5.8v20.7c0,4,1.1,7.1,3.4,9.2
		c2,2,5,3.1,8.5,3.1c3.2,0,6.1-1.1,8.3-3.2c0,1,0,2.8,0,2.8h5.7V58.2H304.1z"/>
	<path class="st0" d="M317.8,48.6h-5.2c0,0,0,8.8,0,9.9c-0.8,0-4,0-4,0v4.7c0,0,3.1,0,4,0c0,1.1,0,18.7,0,18.7c0,5.5,3.4,9,8.6,9
		h3.8v-5.1h-3c-2.5,0-3.7-1.3-3.7-4c0,0,0-17.5,0-18.6c1,0,6.7,0,6.7,0v-4.7c0,0-5.7,0-6.7,0c0-1,0-9.9,0-9.9H317.8z"/>
	<path class="st0" d="M328.2,74.6c0,10.3,5.6,16.7,14.5,16.7c4.6,0,7.5-1.3,10.8-4.9l0.4-0.4l-4-3.8l-0.4,0.4
		c-2.3,2.5-4,3.4-6.8,3.4c-2.9,0-5.3-1.2-6.8-3.3c-1.4-1.9-1.9-4.3-1.9-8.1c0-3.8,0.6-6.2,1.9-8.1c1.5-2.2,3.9-3.3,6.8-3.3
		c2.8,0,4.6,0.8,6.8,3.3l0.4,0.4l4-3.7l-0.4-0.4c-3.3-3.5-6.2-4.9-10.8-4.9C333.7,57.9,328.2,64.3,328.2,74.6z"/>
</g>
<path class="st2" d="M168.1,96.4v33.9h90.8v-56c-29.6,5.1-45.1,12.1-71.9,26.1L168.1,96.4z"/>
<g>
	<path class="st2" d="M258.9,39.5h-90.8v39.8c30.2-10.9,62.3-17.9,90.8-20.1V39.5z"/>
	<path class="st0" d="M258.9,59.2c-28.5,2.2-60.7,9.2-90.8,20.1c-5.7,2.1-11.4,4.3-16.9,6.7l35.9,8.7c29-15.1,47.1-22,81.8-27.3
		v-8.8C265.6,58.7,262.3,58.9,258.9,59.2z"/>
</g>
<g>
	<path class="st0" d="M282.4,113c-2,0-3.5-1.3-3.5-3.4v-6.3h1.9v6.2c0,1.1,0.6,1.8,1.7,1.8c1,0,1.7-0.7,1.7-1.8v-6.2h1.9v6.3
		C285.9,111.7,284.4,113,282.4,113z"/>
	<path class="st0" d="M291.4,112.9v-4.2c0-1-0.6-1.3-1.2-1.3c-0.6,0-1.2,0.3-1.2,1.3v4.2h-1.8v-7h1.7v0.6c0.5-0.5,1.1-0.7,1.8-0.7
		c0.7,0,1.3,0.2,1.7,0.6c0.6,0.6,0.7,1.2,0.7,2v4.5H291.4z"/>
	<path class="st0" d="M296.3,104.7v-1.4h-1.8v1.4H296.3z M296.3,112.9v-7h-1.8v7H296.3z"/>
	<path class="st0" d="M300.7,112.9h-1.4l-2.6-7h1.8l1.4,4.3l1.4-4.3h1.8L300.7,112.9z"/>
	<path class="st0" d="M305.1,110c0,0.9,0.6,1.6,1.5,1.6c0.8,0,1.1-0.2,1.6-0.7l1.1,1c-0.7,0.7-1.4,1.1-2.7,1.1
		c-1.7,0-3.2-0.8-3.2-3.6c0-2.3,1.2-3.6,3.1-3.6c2,0,3.1,1.4,3.1,3.4v0.8H305.1z M307.6,108c-0.2-0.4-0.6-0.7-1.2-0.7
		c-0.6,0-1,0.3-1.2,0.7c-0.1,0.3-0.2,0.4-0.2,0.8h2.7C307.7,108.5,307.7,108.3,307.6,108z"/>
	<path class="st0" d="M314.4,107.8c-0.3-0.3-0.5-0.4-0.9-0.4c-0.5,0-1.1,0.4-1.1,1.3v4.2h-1.8v-7h1.7v0.7c0.3-0.4,1-0.8,1.8-0.8
		c0.7,0,1.2,0.2,1.7,0.7L314.4,107.8z"/>
	<path class="st0" d="M318.3,113c-1.1,0-2.1-0.1-3-1l1.1-1.1c0.6,0.6,1.3,0.7,1.9,0.7c0.6,0,1.2-0.2,1.2-0.7c0-0.4-0.2-0.6-0.7-0.6
		l-1.1-0.1c-1.3-0.1-2.1-0.7-2.1-2c0-1.5,1.3-2.2,2.7-2.2c1.1,0,2,0.2,2.7,0.8l-1.1,1.1c-0.4-0.4-1-0.5-1.6-0.5c-0.7,0-1,0.3-1,0.7
		c0,0.3,0.1,0.6,0.7,0.6l1.1,0.1c1.4,0.1,2.1,0.9,2.1,2.1C321.3,112.3,320,113,318.3,113z"/>
	<path class="st0" d="M324,104.7v-1.4h-1.8v1.4H324z M324,112.9v-7h-1.8v7H324z"/>
	<path class="st0" d="M327.6,112.9c-1.4,0-2-1-2-2v-3.5h-0.7v-1.3h0.7V104h1.8v2.1h1.2v1.3h-1.2v3.4c0,0.4,0.2,0.6,0.6,0.6h0.6v1.5
		H327.6z"/>
	<path class="st0" d="M331,110c0,0.9,0.6,1.6,1.5,1.6c0.8,0,1.1-0.2,1.6-0.7l1.1,1c-0.7,0.7-1.4,1.1-2.7,1.1c-1.7,0-3.2-0.8-3.2-3.6
		c0-2.3,1.2-3.6,3.1-3.6c2,0,3.1,1.4,3.1,3.4v0.8H331z M333.5,108c-0.2-0.4-0.6-0.7-1.2-0.7c-0.6,0-1,0.3-1.2,0.7
		c-0.1,0.3-0.1,0.4-0.2,0.8h2.7C333.6,108.5,333.6,108.3,333.5,108z M332.8,104.8h-1.2l0.9-2.3h1.8L332.8,104.8z"/>
	<path class="st0" d="M342.9,112.9v-0.7c-0.5,0.5-1,0.7-1.7,0.7c-0.7,0-1.3-0.2-1.7-0.6c-0.7-0.7-0.7-1.9-0.7-3c0-1.1,0-2.3,0.7-3
		c0.4-0.4,1-0.6,1.7-0.6c0.7,0,1.3,0.2,1.7,0.7v-3.2h1.8v9.6H342.9z M341.7,107.4c-1.1,0-1.2,0.9-1.2,2s0.1,2,1.2,2
		c1.1,0,1.2-0.9,1.2-2S342.7,107.4,341.7,107.4z"/>
	<path class="st0" d="M347.4,110c0,0.9,0.6,1.6,1.5,1.6c0.8,0,1.1-0.2,1.6-0.7l1.1,1c-0.7,0.7-1.4,1.1-2.7,1.1
		c-1.7,0-3.3-0.8-3.3-3.6c0-2.3,1.2-3.6,3.1-3.6c2,0,3.1,1.4,3.1,3.4v0.8H347.4z M350,108c-0.2-0.4-0.6-0.7-1.2-0.7
		c-0.6,0-1,0.3-1.2,0.7c-0.1,0.3-0.1,0.4-0.2,0.8h2.7C350.1,108.5,350.1,108.3,350,108z"/>
	<path class="st0" d="M359.3,105v7.9h-1.9V105h-2.5v-1.7h6.9v1.7H359.3z"/>
	<path class="st0" d="M363.2,110c0,0.9,0.6,1.6,1.5,1.6c0.8,0,1.1-0.2,1.6-0.7l1.1,1c-0.7,0.7-1.4,1.1-2.7,1.1
		c-1.7,0-3.2-0.8-3.2-3.6c0-2.3,1.2-3.6,3.1-3.6c2,0,3.1,1.4,3.1,3.4v0.8H363.2z M365.7,108c-0.2-0.4-0.6-0.7-1.2-0.7
		c-0.6,0-1,0.3-1.2,0.7c-0.1,0.3-0.1,0.4-0.2,0.8h2.7C365.8,108.5,365.8,108.3,365.7,108z"/>
	<path class="st0" d="M371.4,113c-1.4,0-3.1-0.8-3.1-3.6c0-2.8,1.7-3.6,3.1-3.6c1,0,1.7,0.3,2.3,0.9l-1.2,1.2
		c-0.4-0.4-0.7-0.6-1.1-0.6c-0.4,0-0.7,0.1-1,0.5c-0.3,0.3-0.4,0.8-0.4,1.5s0.1,1.2,0.4,1.6c0.3,0.3,0.6,0.5,1,0.5
		c0.5,0,0.8-0.2,1.1-0.6l1.2,1.2C373.1,112.7,372.4,113,371.4,113z"/>
	<path class="st0" d="M378.6,112.9v-4.3c0-0.9-0.6-1.2-1.1-1.2c-0.6,0-1.1,0.3-1.1,1.2v4.3h-1.8v-9.6h1.8v3.2
		c0.5-0.5,1.1-0.7,1.7-0.7c1.5,0,2.3,1.1,2.3,2.6v4.5H378.6z"/>
	<path class="st0" d="M385.8,112.9v-4.2c0-1-0.6-1.3-1.2-1.3c-0.6,0-1.2,0.3-1.2,1.3v4.2h-1.8v-7h1.7v0.6c0.5-0.5,1.1-0.7,1.8-0.7
		c0.7,0,1.3,0.2,1.7,0.6c0.6,0.6,0.7,1.2,0.7,2v4.5H385.8z"/>
	<path class="st0" d="M393.8,112.2c-0.4,0.5-1.1,0.9-2.2,0.9c-1,0-1.7-0.4-2.2-0.9c-0.6-0.7-0.8-1.5-0.8-2.7c0-1.3,0.2-2.1,0.8-2.7
		c0.4-0.5,1.1-0.9,2.2-0.9c1,0,1.8,0.4,2.2,0.9c0.6,0.7,0.8,1.5,0.8,2.7C394.6,110.7,394.4,111.5,393.8,112.2z M392.4,107.7
		c-0.2-0.2-0.5-0.3-0.8-0.3c-0.4,0-0.6,0.1-0.8,0.3c-0.4,0.4-0.4,1-0.4,1.7s0,1.3,0.4,1.7c0.2,0.2,0.5,0.3,0.8,0.3
		c0.3,0,0.6-0.1,0.8-0.3c0.4-0.4,0.4-1,0.4-1.7S392.8,108.1,392.4,107.7z"/>
	<path class="st0" d="M397.7,112.9c-1.4,0-2.1-1-2.1-2v-7.6h1.8v7.5c0,0.4,0.2,0.6,0.6,0.6h0.7v1.5H397.7z"/>
	<path class="st0" d="M404.1,112.2c-0.4,0.5-1.1,0.9-2.2,0.9c-1,0-1.7-0.4-2.2-0.9c-0.6-0.7-0.8-1.5-0.8-2.7c0-1.3,0.2-2.1,0.8-2.7
		c0.4-0.5,1.1-0.9,2.2-0.9c1,0,1.8,0.4,2.2,0.9c0.6,0.7,0.8,1.5,0.8,2.7C404.9,110.7,404.8,111.5,404.1,112.2z M402.8,107.7
		c-0.2-0.2-0.5-0.3-0.8-0.3c-0.4,0-0.6,0.1-0.8,0.3c-0.4,0.4-0.4,1-0.4,1.7s0,1.3,0.4,1.7c0.2,0.2,0.5,0.3,0.8,0.3
		c0.3,0,0.6-0.1,0.8-0.3c0.4-0.4,0.4-1,0.4-1.7S403.1,108.1,402.8,107.7z"/>
	<path class="st0" d="M408.5,115.6c-1.1,0-1.8-0.2-2.6-0.9l1.1-1.1c0.4,0.4,0.8,0.5,1.4,0.5c1.1,0,1.4-0.7,1.4-1.5v-0.7
		c-0.5,0.5-1,0.7-1.7,0.7c-0.7,0-1.3-0.2-1.7-0.6c-0.7-0.7-0.7-1.6-0.7-2.8c0-1.2,0.1-2.1,0.7-2.8c0.4-0.4,1-0.6,1.7-0.6
		c0.7,0,1.2,0.2,1.7,0.7v-0.7h1.7v6.8C411.6,114.4,410.4,115.6,408.5,115.6z M408.6,107.4c-1,0-1.1,0.9-1.1,1.8
		c0,0.9,0.1,1.8,1.1,1.8c1,0,1.2-0.9,1.2-1.8C409.8,108.3,409.7,107.4,408.6,107.4z"/>
	<path class="st0" d="M414.8,104.7v-1.4H413v1.4H414.8z M414.7,112.9v-7H413v7H414.7z"/>
	<path class="st0" d="M417.5,110c0,0.9,0.6,1.6,1.5,1.6c0.8,0,1.1-0.2,1.6-0.7l1.1,1c-0.7,0.7-1.4,1.1-2.7,1.1
		c-1.7,0-3.3-0.8-3.3-3.6c0-2.3,1.2-3.6,3.1-3.6c2,0,3.1,1.4,3.1,3.4v0.8H417.5z M420,108c-0.2-0.4-0.6-0.7-1.2-0.7
		c-0.6,0-1,0.3-1.2,0.7c-0.1,0.3-0.1,0.4-0.2,0.8h2.7C420.2,108.5,420.2,108.3,420,108z"/>
</g>
<g>
	<path class="st0" d="M283.7,130.5c-1.5,0-2.8-0.6-3.8-1.5c-1.4-1.4-1.4-3.2-1.4-5.6c0-2.4,0-4.2,1.4-5.6c1-1,2.2-1.5,3.8-1.5
		c2.6,0,4.7,1.5,5.1,4.4h-2.8c-0.3-1.1-1-2-2.4-2c-0.7,0-1.4,0.3-1.7,0.7c-0.5,0.6-0.7,1.3-0.7,4c0,2.7,0.2,3.4,0.7,4
		c0.4,0.4,1,0.7,1.7,0.7c1.4,0,2.1-0.9,2.4-2h2.8C288.4,129,286.3,130.5,283.7,130.5z"/>
	<path class="st0" d="M297.3,129.2c-0.6,0.7-1.7,1.3-3.2,1.3c-1.5,0-2.5-0.6-3.2-1.3c-0.9-1-1.2-2.1-1.2-4c0-1.8,0.2-3,1.2-4
		c0.6-0.7,1.7-1.3,3.2-1.3c1.5,0,2.6,0.6,3.2,1.3c0.9,1,1.2,2.1,1.2,4C298.5,127.1,298.2,128.3,297.3,129.2z M295.3,122.8
		c-0.3-0.3-0.7-0.5-1.2-0.5c-0.5,0-0.9,0.2-1.2,0.5c-0.5,0.5-0.6,1.4-0.6,2.5c0,1.1,0.1,2,0.6,2.5c0.3,0.3,0.7,0.5,1.2,0.5
		c0.5,0,0.9-0.2,1.2-0.5c0.5-0.5,0.6-1.4,0.6-2.5C295.9,124.2,295.8,123.3,295.3,122.8z"/>
	<path class="st0" d="M312,130.4v-6.2c0-1.4-0.9-1.9-1.7-1.9c-0.8,0-1.7,0.5-1.7,1.8v6.2h-2.6v-6.2c0-1.4-0.9-1.9-1.7-1.9
		c-0.8,0-1.7,0.5-1.7,1.9v6.2h-2.6v-10.2h2.5v0.9c0.7-0.7,1.6-1.1,2.6-1.1c1.1,0,2.1,0.4,2.7,1.3c0.9-0.9,1.8-1.3,3.1-1.3
		c1,0,1.9,0.3,2.5,0.9c0.8,0.8,1.1,1.8,1.1,2.9v6.5H312z"/>
	<path class="st0" d="M324.1,129.6c-0.6,0.6-1.5,0.9-2.5,0.9c-1,0-1.8-0.3-2.5-1v4.7h-2.6v-14h2.5v1c0.7-0.8,1.5-1.1,2.6-1.1
		c1,0,1.9,0.4,2.5,0.9c1,1,1,2.8,1,4.3C325.1,126.8,325.1,128.5,324.1,129.6z M320.8,122.3c-1.5,0-1.7,1.3-1.7,2.9
		c0,1.7,0.2,2.9,1.7,2.9c1.5,0,1.7-1.3,1.7-2.9C322.5,123.6,322.3,122.3,320.8,122.3z"/>
	<path class="st0" d="M326.7,118.4v-2.1h2.6v2.1H326.7z M326.8,130.4v-10.2h2.6v10.2H326.8z"/>
	<path class="st0" d="M333.4,126c0,1.3,0.8,2.3,2.2,2.3c1.1,0,1.7-0.3,2.3-1l1.6,1.5c-1,1-2,1.6-3.9,1.6c-2.4,0-4.7-1.1-4.7-5.2
		c0-3.3,1.8-5.2,4.5-5.2c2.8,0,4.5,2.1,4.5,4.9v1.1H333.4z M334.7,118.5l-2.2-3.3h2.7l1.3,3.3H334.7z M337,123.2
		c-0.3-0.6-0.8-1.1-1.7-1.1c-0.9,0-1.4,0.5-1.7,1.1c-0.2,0.4-0.2,0.6-0.2,1.1h3.9C337.2,123.8,337.2,123.6,337,123.2z"/>
	<path class="st0" d="M344.9,134.2c-1.6,0-2.7-0.3-3.7-1.3l1.6-1.6c0.6,0.5,1.1,0.8,2,0.8c1.5,0,2.1-1.1,2.1-2.1v-1
		c-0.7,0.7-1.4,1-2.4,1c-1,0-1.9-0.3-2.4-0.9c-1-1-1-2.3-1-4.1c0-1.8,0.1-3.1,1-4c0.6-0.6,1.5-0.9,2.5-0.9c1.1,0,1.8,0.3,2.5,1.1v-1
		h2.5v9.9C349.4,132.4,347.6,134.2,344.9,134.2z M345.1,122.3c-1.5,0-1.7,1.3-1.7,2.7c0,1.4,0.2,2.7,1.7,2.7c1.5,0,1.7-1.3,1.7-2.7
		C346.8,123.6,346.7,122.3,345.1,122.3z"/>
	<path class="st0" d="M357.4,130.4v-6.2c0-1.4-0.9-1.9-1.7-1.9c-0.8,0-1.7,0.5-1.7,1.9v6.2h-2.6v-10.2h2.5v0.9
		c0.7-0.7,1.6-1.1,2.6-1.1c1,0,1.8,0.3,2.4,0.9c0.8,0.8,1,1.8,1,2.9v6.5H357.4z"/>
	<path class="st0" d="M363.9,126c0,1.3,0.8,2.3,2.2,2.3c1.1,0,1.7-0.3,2.3-1l1.6,1.5c-1,1-2,1.6-3.9,1.6c-2.4,0-4.7-1.1-4.7-5.2
		c0-3.3,1.8-5.2,4.5-5.2c2.8,0,4.5,2.1,4.5,4.9v1.1H363.9z M367.6,123.2c-0.3-0.6-0.8-1.1-1.7-1.1c-0.9,0-1.4,0.5-1.7,1.1
		c-0.2,0.4-0.2,0.6-0.2,1.1h3.9C367.8,123.8,367.8,123.6,367.6,123.2z"/>
</g>
</svg>
